<svg id="visual" viewBox="0 0 400 150" width="400" height="150" xmlns="http://www.w3.org/2000/svg" xmlns:xlink="http://www.w3.org/1999/xlink" version="1.1"><path d="M0 75L18 75L18 48L36 48L36 85L55 85L55 54L73 54L73 79L91 79L91 55L109 55L109 76L127 76L127 47L145 47L145 58L164 58L164 49L182 49L182 76L200 76L200 87L218 87L218 74L236 74L236 49L255 49L255 88L273 88L273 48L291 48L291 61L309 61L309 91L327 91L327 51L345 51L345 89L364 89L364 88L382 88L382 59L400 59L400 67L400 0L400 0L382 0L382 0L364 0L364 0L345 0L345 0L327 0L327 0L309 0L309 0L291 0L291 0L273 0L273 0L255 0L255 0L236 0L236 0L218 0L218 0L200 0L200 0L182 0L182 0L164 0L164 0L145 0L145 0L127 0L127 0L109 0L109 0L91 0L91 0L73 0L73 0L55 0L55 0L36 0L36 0L18 0L18 0L0 0Z" fill="#f28454"></path><path d="M0 30L18 30L18 67L36 67L36 71L55 71L55 57L73 57L73 34L91 34L91 54L109 54L109 57L127 57L127 64L145 64L145 42L164 42L164 68L182 68L182 69L200 69L200 38L218 38L218 69L236 69L236 48L255 48L255 41L273 41L273 70L291 70L291 57L309 57L309 72L327 72L327 58L345 58L345 66L364 66L364 70L382 70L382 40L400 40L400 40L400 0L400 0L382 0L382 0L364 0L364 0L345 0L345 0L327 0L327 0L309 0L309 0L291 0L291 0L273 0L273 0L255 0L255 0L236 0L236 0L218 0L218 0L200 0L200 0L182 0L182 0L164 0L164 0L145 0L145 0L127 0L127 0L109 0L109 0L91 0L91 0L73 0L73 0L55 0L55 0L36 0L36 0L18 0L18 0L0 0Z" fill="#a35342"></path><path d="M0 24L18 24L18 50L36 50L36 24L55 24L55 40L73 40L73 28L91 28L91 39L109 39L109 28L127 28L127 48L145 48L145 51L164 51L164 26L182 26L182 37L200 37L200 39L218 39L218 25L236 25L236 23L255 23L255 39L273 39L273 18L291 18L291 20L309 20L309 31L327 31L327 52L345 52L345 20L364 20L364 43L382 43L382 25L400 25L400 43L400 0L400 0L382 0L382 0L364 0L364 0L345 0L345 0L327 0L327 0L309 0L309 0L291 0L291 0L273 0L273 0L255 0L255 0L236 0L236 0L218 0L218 0L200 0L200 0L182 0L182 0L164 0L164 0L145 0L145 0L127 0L127 0L109 0L109 0L91 0L91 0L73 0L73 0L55 0L55 0L36 0L36 0L18 0L18 0L0 0Z" fill="#562b28"></path><path d="M0 29L18 29L18 34L36 34L36 12L55 12L55 15L73 15L73 7L91 7L91 13L109 13L109 15L127 15L127 20L145 20L145 24L164 24L164 30L182 30L182 18L200 18L200 26L218 26L218 7L236 7L236 15L255 15L255 27L273 27L273 31L291 31L291 28L309 28L309 18L327 18L327 18L345 18L345 30L364 30L364 33L382 33L382 15L400 15L400 28L400 0L400 0L382 0L382 0L364 0L364 0L345 0L345 0L327 0L327 0L309 0L309 0L291 0L291 0L273 0L273 0L255 0L255 0L236 0L236 0L218 0L218 0L200 0L200 0L182 0L182 0L164 0L164 0L145 0L145 0L127 0L127 0L109 0L109 0L91 0L91 0L73 0L73 0L55 0L55 0L36 0L36 0L18 0L18 0L0 0Z" fill="#110303"></path></svg>