<svg id="visual" viewBox="0 0 500 450" width="500" height="450" xmlns="http://www.w3.org/2000/svg" xmlns:xlink="http://www.w3.org/1999/xlink" version="1.1"><path d="M0 383L3.7 384.3C7.3 385.7 14.7 388.3 21.8 388.3C29 388.3 36 385.7 43.2 384.2C50.3 382.7 57.7 382.3 65 384.3C72.3 386.3 79.7 390.7 87 391.8C94.3 393 101.7 391 108.8 391.3C116 391.7 123 394.3 130.2 394.5C137.3 394.7 144.7 392.3 152 391.5C159.3 390.7 166.7 391.3 174 392.7C181.3 394 188.7 396 195.8 396C203 396 210 394 217.2 393.8C224.3 393.7 231.7 395.3 239 394C246.3 392.7 253.7 388.3 261 385.8C268.3 383.3 275.7 382.7 282.8 382.3C290 382 297 382 304.2 383.2C311.3 384.3 318.7 386.7 326 386.8C333.3 387 340.7 385 348 383.7C355.3 382.3 362.7 381.7 369.8 382.7C377 383.7 384 386.3 391.2 389.2C398.3 392 405.7 395 413 394.8C420.3 394.7 427.7 391.3 435 390.5C442.3 389.7 449.7 391.3 456.8 390.3C464 389.3 471 385.7 478.2 385.3C485.3 385 492.7 388 496.3 389.5L500 391L500 451L496.3 451C492.7 451 485.3 451 478.2 451C471 451 464 451 456.8 451C449.7 451 442.3 451 435 451C427.7 451 420.3 451 413 451C405.7 451 398.3 451 391.2 451C384 451 377 451 369.8 451C362.7 451 355.3 451 348 451C340.7 451 333.3 451 326 451C318.7 451 311.3 451 304.2 451C297 451 290 451 282.8 451C275.7 451 268.3 451 261 451C253.7 451 246.3 451 239 451C231.7 451 224.3 451 217.2 451C210 451 203 451 195.8 451C188.7 451 181.3 451 174 451C166.7 451 159.3 451 152 451C144.7 451 137.3 451 130.2 451C123 451 116 451 108.8 451C101.7 451 94.3 451 87 451C79.7 451 72.3 451 65 451C57.7 451 50.3 451 43.2 451C36 451 29 451 21.8 451C14.7 451 7.3 451 3.7 451L0 451Z" fill="#ff0035"></path><path d="M0 406L3.7 405.5C7.3 405 14.7 404 21.8 403.7C29 403.3 36 403.7 43.2 403.5C50.3 403.3 57.7 402.7 65 402.3C72.3 402 79.7 402 87 403C94.3 404 101.7 406 108.8 405.5C116 405 123 402 130.2 401.8C137.3 401.7 144.7 404.3 152 404.2C159.3 404 166.7 401 174 399C181.3 397 188.7 396 195.8 396.3C203 396.7 210 398.3 217.2 398.7C224.3 399 231.7 398 239 399.3C246.3 400.7 253.7 404.3 261 405C268.3 405.7 275.7 403.3 282.8 402.2C290 401 297 401 304.2 400.5C311.3 400 318.7 399 326 398.8C333.3 398.7 340.7 399.3 348 399.7C355.3 400 362.7 400 369.8 399.2C377 398.3 384 396.7 391.2 395.7C398.3 394.7 405.7 394.3 413 394.2C420.3 394 427.7 394 435 395.7C442.3 397.3 449.7 400.7 456.8 402.2C464 403.7 471 403.3 478.2 403.7C485.3 404 492.7 405 496.3 405.5L500 406L500 451L496.3 451C492.7 451 485.3 451 478.2 451C471 451 464 451 456.8 451C449.7 451 442.3 451 435 451C427.7 451 420.3 451 413 451C405.7 451 398.3 451 391.2 451C384 451 377 451 369.8 451C362.7 451 355.3 451 348 451C340.7 451 333.3 451 326 451C318.7 451 311.3 451 304.2 451C297 451 290 451 282.8 451C275.7 451 268.3 451 261 451C253.7 451 246.3 451 239 451C231.7 451 224.3 451 217.2 451C210 451 203 451 195.8 451C188.7 451 181.3 451 174 451C166.7 451 159.3 451 152 451C144.7 451 137.3 451 130.2 451C123 451 116 451 108.8 451C101.7 451 94.3 451 87 451C79.7 451 72.3 451 65 451C57.7 451 50.3 451 43.2 451C36 451 29 451 21.8 451C14.7 451 7.3 451 3.7 451L0 451Z" fill="#bd152f"></path><path d="M0 417L3.7 415.2C7.3 413.3 14.7 409.7 21.8 409.5C29 409.3 36 412.7 43.2 414.3C50.3 416 57.7 416 65 414.5C72.3 413 79.7 410 87 408.8C94.3 407.7 101.7 408.3 108.8 409.5C116 410.7 123 412.3 130.2 412.8C137.3 413.3 144.7 412.7 152 412.7C159.3 412.7 166.7 413.3 174 413C181.3 412.7 188.7 411.3 195.8 411.3C203 411.3 210 412.7 217.2 412C224.3 411.3 231.7 408.7 239 407.7C246.3 406.7 253.7 407.3 261 407.2C268.3 407 275.7 406 282.8 406.8C290 407.7 297 410.3 304.2 410.8C311.3 411.3 318.7 409.7 326 410.2C333.3 410.7 340.7 413.3 348 414.7C355.3 416 362.7 416 369.8 414.7C377 413.3 384 410.7 391.2 410.3C398.3 410 405.7 412 413 411.8C420.3 411.7 427.7 409.3 435 408.7C442.3 408 449.7 409 456.8 408.7C464 408.3 471 406.7 478.2 407C485.3 407.3 492.7 409.7 496.3 410.8L500 412L500 451L496.3 451C492.7 451 485.3 451 478.2 451C471 451 464 451 456.8 451C449.7 451 442.3 451 435 451C427.7 451 420.3 451 413 451C405.7 451 398.3 451 391.2 451C384 451 377 451 369.8 451C362.7 451 355.3 451 348 451C340.7 451 333.3 451 326 451C318.7 451 311.3 451 304.2 451C297 451 290 451 282.8 451C275.7 451 268.3 451 261 451C253.7 451 246.3 451 239 451C231.7 451 224.3 451 217.2 451C210 451 203 451 195.8 451C188.7 451 181.3 451 174 451C166.7 451 159.3 451 152 451C144.7 451 137.3 451 130.2 451C123 451 116 451 108.8 451C101.7 451 94.3 451 87 451C79.7 451 72.3 451 65 451C57.7 451 50.3 451 43.2 451C36 451 29 451 21.8 451C14.7 451 7.3 451 3.7 451L0 451Z" fill="#7e1925"></path><path d="M0 423L3.7 422.7C7.3 422.3 14.7 421.7 21.8 422.3C29 423 36 425 43.2 426C50.3 427 57.7 427 65 425.7C72.3 424.3 79.7 421.7 87 420.3C94.3 419 101.7 419 108.8 418.8C116 418.7 123 418.3 130.2 418.3C137.3 418.3 144.7 418.7 152 418.8C159.3 419 166.7 419 174 419.7C181.3 420.3 188.7 421.7 195.8 423C203 424.3 210 425.7 217.2 426.3C224.3 427 231.7 427 239 426.2C246.3 425.3 253.7 423.7 261 422C268.3 420.3 275.7 418.7 282.8 418.3C290 418 297 419 304.2 419.7C311.3 420.3 318.7 420.7 326 421.8C333.3 423 340.7 425 348 424.7C355.3 424.3 362.7 421.7 369.8 420.3C377 419 384 419 391.2 419.7C398.3 420.3 405.7 421.7 413 421.7C420.3 421.7 427.7 420.3 435 420.5C442.3 420.7 449.7 422.3 456.8 423.3C464 424.3 471 424.7 478.2 423.7C485.3 422.7 492.7 420.3 496.3 419.2L500 418L500 451L496.3 451C492.7 451 485.3 451 478.2 451C471 451 464 451 456.8 451C449.7 451 442.3 451 435 451C427.7 451 420.3 451 413 451C405.7 451 398.3 451 391.2 451C384 451 377 451 369.8 451C362.7 451 355.3 451 348 451C340.7 451 333.3 451 326 451C318.7 451 311.3 451 304.2 451C297 451 290 451 282.8 451C275.7 451 268.3 451 261 451C253.7 451 246.3 451 239 451C231.7 451 224.3 451 217.2 451C210 451 203 451 195.8 451C188.7 451 181.3 451 174 451C166.7 451 159.3 451 152 451C144.7 451 137.3 451 130.2 451C123 451 116 451 108.8 451C101.7 451 94.3 451 87 451C79.7 451 72.3 451 65 451C57.7 451 50.3 451 43.2 451C36 451 29 451 21.8 451C14.7 451 7.3 451 3.7 451L0 451Z" fill="#431619"></path><path d="M0 431L3.7 431.8C7.3 432.7 14.7 434.3 21.8 435.3C29 436.3 36 436.7 43.2 436.5C50.3 436.3 57.7 435.7 65 435.5C72.3 435.3 79.7 435.7 87 436.2C94.3 436.7 101.7 437.3 108.8 437.7C116 438 123 438 130.2 437C137.3 436 144.7 434 152 432.8C159.3 431.7 166.7 431.3 174 431.7C181.3 432 188.7 433 195.8 432.8C203 432.7 210 431.3 217.2 431C224.3 430.7 231.7 431.3 239 431.5C246.3 431.7 253.7 431.3 261 432.2C268.3 433 275.7 435 282.8 434.8C290 434.7 297 432.3 304.2 431.7C311.3 431 318.7 432 326 432.2C333.3 432.3 340.7 431.7 348 432.2C355.3 432.7 362.7 434.3 369.8 434.8C377 435.3 384 434.7 391.2 434.3C398.3 434 405.7 434 413 434.3C420.3 434.7 427.7 435.3 435 436C442.3 436.7 449.7 437.3 456.8 436.7C464 436 471 434 478.2 433.2C485.3 432.3 492.7 432.7 496.3 432.8L500 433L500 451L496.3 451C492.7 451 485.3 451 478.2 451C471 451 464 451 456.8 451C449.7 451 442.3 451 435 451C427.7 451 420.3 451 413 451C405.7 451 398.3 451 391.2 451C384 451 377 451 369.8 451C362.7 451 355.3 451 348 451C340.7 451 333.3 451 326 451C318.7 451 311.3 451 304.2 451C297 451 290 451 282.8 451C275.7 451 268.3 451 261 451C253.7 451 246.3 451 239 451C231.7 451 224.3 451 217.2 451C210 451 203 451 195.8 451C188.7 451 181.3 451 174 451C166.7 451 159.3 451 152 451C144.7 451 137.3 451 130.2 451C123 451 116 451 108.8 451C101.7 451 94.3 451 87 451C79.7 451 72.3 451 65 451C57.7 451 50.3 451 43.2 451C36 451 29 451 21.8 451C14.7 451 7.3 451 3.7 451L0 451Z" fill="#080505"></path></svg>