<svg id="visual" viewBox="0 0 400 250" width="400" height="250" xmlns="http://www.w3.org/2000/svg" xmlns:xlink="http://www.w3.org/1999/xlink" version="1.1"><path d="M0 177L11.2 174.2C22.3 171.3 44.7 165.7 66.8 158.8C89 152 111 144 133.2 148.2C155.3 152.3 177.7 168.7 200 171.3C222.3 174 244.7 163 266.8 162.3C289 161.7 311 171.3 333.2 168.3C355.3 165.3 377.7 149.7 388.8 141.8L400 134L400 251L388.8 251C377.7 251 355.3 251 333.2 251C311 251 289 251 266.8 251C244.7 251 222.3 251 200 251C177.7 251 155.3 251 133.2 251C111 251 89 251 66.8 251C44.7 251 22.3 251 11.2 251L0 251Z" fill="#f06d34"></path><path d="M0 185L11.2 185.8C22.3 186.7 44.7 188.3 66.8 188C89 187.7 111 185.3 133.2 181.2C155.3 177 177.7 171 200 171.2C222.3 171.3 244.7 177.7 266.8 182.7C289 187.7 311 191.3 333.2 189.7C355.3 188 377.7 181 388.8 177.5L400 174L400 251L388.8 251C377.7 251 355.3 251 333.2 251C311 251 289 251 266.8 251C244.7 251 222.3 251 200 251C177.7 251 155.3 251 133.2 251C111 251 89 251 66.8 251C44.7 251 22.3 251 11.2 251L0 251Z" fill="#b54d33"></path><path d="M0 188L11.2 190.2C22.3 192.3 44.7 196.7 66.8 195.3C89 194 111 187 133.2 182.8C155.3 178.7 177.7 177.3 200 181.7C222.3 186 244.7 196 266.8 199.3C289 202.7 311 199.3 333.2 199.3C355.3 199.3 377.7 202.7 388.8 204.3L400 206L400 251L388.8 251C377.7 251 355.3 251 333.2 251C311 251 289 251 266.8 251C244.7 251 222.3 251 200 251C177.7 251 155.3 251 133.2 251C111 251 89 251 66.8 251C44.7 251 22.3 251 11.2 251L0 251Z" fill="#7a332a"></path><path d="M0 193L11.2 193.2C22.3 193.3 44.7 193.7 66.8 197.2C89 200.7 111 207.3 133.2 208.7C155.3 210 177.7 206 200 201.7C222.3 197.3 244.7 192.7 266.8 190.5C289 188.3 311 188.7 333.2 194.3C355.3 200 377.7 211 388.8 216.5L400 222L400 251L388.8 251C377.7 251 355.3 251 333.2 251C311 251 289 251 266.8 251C244.7 251 222.3 251 200 251C177.7 251 155.3 251 133.2 251C111 251 89 251 66.8 251C44.7 251 22.3 251 11.2 251L0 251Z" fill="#401d1c"></path><path d="M0 210L11.2 210.2C22.3 210.3 44.7 210.7 66.8 211.3C89 212 111 213 133.2 214.5C155.3 216 177.7 218 200 218.7C222.3 219.3 244.7 218.7 266.8 217C289 215.3 311 212.7 333.2 212.2C355.3 211.7 377.7 213.3 388.8 214.2L400 215L400 251L388.8 251C377.7 251 355.3 251 333.2 251C311 251 289 251 266.8 251C244.7 251 222.3 251 200 251C177.7 251 155.3 251 133.2 251C111 251 89 251 66.8 251C44.7 251 22.3 251 11.2 251L0 251Z" fill="#050101"></path></svg>