<svg id="visual" viewBox="0 0 400 450" width="450" height="400" xmlns="http://www.w3.org/2000/svg" xmlns:xlink="http://www.w3.org/1999/xlink" version="1.1"><path d="M0 309L9.5 313.3C19 317.7 38 326.3 57 329.5C76 332.7 95 330.3 114 328.7C133 327 152 326 171.2 317C190.3 308 209.7 291 228.8 291.7C248 292.3 267 310.7 286 317.8C305 325 324 321 343 319.3C362 317.7 381 318.3 390.5 318.7L400 319L400 451L390.5 451C381 451 362 451 343 451C324 451 305 451 286 451C267 451 248 451 228.8 451C209.7 451 190.3 451 171.2 451C152 451 133 451 114 451C95 451 76 451 57 451C38 451 19 451 9.5 451L0 451Z" fill="#709775"></path><path d="M0 330L9.5 327.3C19 324.7 38 319.3 57 321C76 322.7 95 331.3 114 331.5C133 331.7 152 323.3 171.2 320C190.3 316.7 209.7 318.3 228.8 320.3C248 322.3 267 324.7 286 320.8C305 317 324 307 343 302.5C362 298 381 299 390.5 299.5L400 300L400 451L390.5 451C381 451 362 451 343 451C324 451 305 451 286 451C267 451 248 451 228.8 451C209.7 451 190.3 451 171.2 451C152 451 133 451 114 451C95 451 76 451 57 451C38 451 19 451 9.5 451L0 451Z" fill="#7e9247"></path><path d="M0 334L9.5 336.2C19 338.3 38 342.7 57 349.7C76 356.7 95 366.3 114 364C133 361.7 152 347.3 171.2 340.8C190.3 334.3 209.7 335.7 228.8 341C248 346.3 267 355.7 286 356.7C305 357.7 324 350.3 343 352C362 353.7 381 364.3 390.5 369.7L400 375L400 451L390.5 451C381 451 362 451 343 451C324 451 305 451 286 451C267 451 248 451 228.8 451C209.7 451 190.3 451 171.2 451C152 451 133 451 114 451C95 451 76 451 57 451C38 451 19 451 9.5 451L0 451Z" fill="#a3830d"></path><path d="M0 389L9.5 386.5C19 384 38 379 57 380.2C76 381.3 95 388.7 114 389.8C133 391 152 386 171.2 382.2C190.3 378.3 209.7 375.7 228.8 374.2C248 372.7 267 372.3 286 374.5C305 376.7 324 381.3 343 379.8C362 378.3 381 370.7 390.5 366.8L400 363L400 451L390.5 451C381 451 362 451 343 451C324 451 305 451 286 451C267 451 248 451 228.8 451C209.7 451 190.3 451 171.2 451C152 451 133 451 114 451C95 451 76 451 57 451C38 451 19 451 9.5 451L0 451Z" fill="#d26400"></path><path d="M0 413L9.5 412C19 411 38 409 57 409.8C76 410.7 95 414.3 114 416.2C133 418 152 418 171.2 414.7C190.3 411.3 209.7 404.7 228.8 403.7C248 402.7 267 407.3 286 410.3C305 413.3 324 414.7 343 414.3C362 414 381 412 390.5 411L400 410L400 451L390.5 451C381 451 362 451 343 451C324 451 305 451 286 451C267 451 248 451 228.8 451C209.7 451 190.3 451 171.2 451C152 451 133 451 114 451C95 451 76 451 57 451C38 451 19 451 9.5 451L0 451Z" fill="#ff0035"></path></svg>